<svg width="119" height="24" viewBox="0 0 119 24" fill="none" xmlns="http://www.w3.org/2000/svg">
<g clip-path="url(#clip0_1_96)">
<path fill-rule="evenodd" clip-rule="evenodd" d="M13.1583 11.2087C13.4527 11.1454 13.5621 11.1863 13.586 11.1978C13.5959 11.2183 13.6182 11.2857 13.6027 11.4445C13.5803 11.6752 13.4834 12.0015 13.2857 12.41C12.8933 13.221 12.1695 14.221 11.1953 15.1953C10.221 16.1695 9.22107 16.8933 8.41003 17.2857C8.00153 17.4834 7.67517 17.5802 7.44453 17.6027C7.2857 17.6182 7.21837 17.5958 7.1978 17.586C7.1863 17.5621 7.14543 17.4527 7.20873 17.1583C7.2854 16.8018 7.48963 16.3219 7.8346 15.7606C8.2525 15.0806 8.8499 14.3248 9.58737 13.5873C10.3248 12.8499 11.0806 12.2525 11.7606 11.8346C12.3219 11.4896 12.8018 11.2854 13.1583 11.2087ZM1.47063 13.7468L6.25323 18.5294C6.6271 18.9032 7.13423 18.9726 7.5739 18.9298C8.0195 18.8863 8.50493 18.721 8.99077 18.486C9.9684 18.0129 11.0873 17.1889 12.1381 16.1381C13.1889 15.0873 14.0129 13.9684 14.486 12.9908C14.721 12.5049 14.8863 12.0195 14.9298 11.5739C14.9726 11.1342 14.9032 10.6271 14.5294 10.2532L9.74677 5.47062C9.28423 5.00809 8.6255 5.00858 8.09537 5.12259C7.53603 5.24288 6.91113 5.52806 6.27987 5.916C5.49927 6.39572 4.6627 7.06118 3.86193 7.86193C3.06118 8.66267 2.39572 9.49927 1.91601 10.2799C1.52807 10.9111 1.24288 11.536 1.12259 12.0954C1.00858 12.6255 1.0081 13.2842 1.47063 13.7468Z" fill="#121714"/>
</g>
<path d="M33.188 18.5V5.9H38.372C39.164 5.9 39.86 6.062 40.46 6.386C41.072 6.698 41.546 7.142 41.882 7.718C42.23 8.294 42.404 8.978 42.404 9.77V10.022C42.404 10.802 42.224 11.486 41.864 12.074C41.516 12.65 41.036 13.1 40.424 13.424C39.824 13.736 39.14 13.892 38.372 13.892H35.564V18.5H33.188ZM35.564 11.732H38.138C38.702 11.732 39.158 11.576 39.506 11.264C39.854 10.952 40.028 10.526 40.028 9.986V9.806C40.028 9.266 39.854 8.84 39.506 8.528C39.158 8.216 38.702 8.06 38.138 8.06H35.564V11.732ZM47.9979 18.752C47.1099 18.752 46.3239 18.566 45.6399 18.194C44.9679 17.81 44.4399 17.276 44.0559 16.592C43.6839 15.896 43.4979 15.08 43.4979 14.144V13.928C43.4979 12.992 43.6839 12.182 44.0559 11.498C44.4279 10.802 44.9499 10.268 45.6219 9.896C46.2939 9.512 47.0739 9.32 47.9619 9.32C48.8379 9.32 49.5999 9.518 50.2479 9.914C50.8959 10.298 51.3999 10.838 51.7599 11.534C52.1199 12.218 52.2999 13.016 52.2999 13.928V14.702H45.8019C45.8259 15.314 46.0539 15.812 46.4859 16.196C46.9179 16.58 47.4459 16.772 48.0699 16.772C48.7059 16.772 49.1739 16.634 49.4739 16.358C49.7739 16.082 50.0019 15.776 50.1579 15.44L52.0119 16.412C51.8439 16.724 51.5979 17.066 51.2739 17.438C50.9619 17.798 50.5419 18.11 50.0139 18.374C49.4859 18.626 48.8139 18.752 47.9979 18.752ZM45.8199 13.01H49.9959C49.9479 12.494 49.7379 12.08 49.3659 11.768C49.0059 11.456 48.5319 11.3 47.9439 11.3C47.3319 11.3 46.8459 11.456 46.4859 11.768C46.1259 12.08 45.9039 12.494 45.8199 13.01ZM57.4398 18.5C56.8518 18.5 56.3718 18.32 55.9998 17.96C55.6398 17.588 55.4598 17.096 55.4598 16.484V11.444H53.2278V9.572H55.4598V6.8H57.7278V9.572H60.1758V11.444H57.7278V16.088C57.7278 16.448 57.8958 16.628 58.2318 16.628H59.9598V18.5H57.4398ZM66.7271 18.5V5.9H69.1031V11.102H73.7831V5.9H76.1591V18.5H73.7831V13.262H69.1031V18.5H66.7271ZM81.3836 18.752C80.7476 18.752 80.1776 18.644 79.6736 18.428C79.1696 18.2 78.7676 17.876 78.4676 17.456C78.1796 17.024 78.0356 16.502 78.0356 15.89C78.0356 15.278 78.1796 14.768 78.4676 14.36C78.7676 13.94 79.1756 13.628 79.6916 13.424C80.2196 13.208 80.8196 13.1 81.4916 13.1H83.9396V12.596C83.9396 12.176 83.8076 11.834 83.5436 11.57C83.2796 11.294 82.8596 11.156 82.2836 11.156C81.7196 11.156 81.2996 11.288 81.0236 11.552C80.7476 11.804 80.5676 12.134 80.4836 12.542L78.3956 11.84C78.5396 11.384 78.7676 10.97 79.0796 10.598C79.4036 10.214 79.8296 9.908 80.3576 9.68C80.8976 9.44 81.5516 9.32 82.3196 9.32C83.4956 9.32 84.4256 9.614 85.1096 10.202C85.7936 10.79 86.1356 11.642 86.1356 12.758V16.088C86.1356 16.448 86.3036 16.628 86.6396 16.628H87.3596V18.5H85.8476C85.4036 18.5 85.0376 18.392 84.7496 18.176C84.4616 17.96 84.3176 17.672 84.3176 17.312V17.294H83.9756C83.9276 17.438 83.8196 17.63 83.6516 17.87C83.4836 18.098 83.2196 18.302 82.8596 18.482C82.4996 18.662 82.0076 18.752 81.3836 18.752ZM81.7796 16.916C82.4156 16.916 82.9316 16.742 83.3276 16.394C83.7356 16.034 83.9396 15.56 83.9396 14.972V14.792H81.6536C81.2336 14.792 80.9036 14.882 80.6636 15.062C80.4236 15.242 80.3036 15.494 80.3036 15.818C80.3036 16.142 80.4296 16.406 80.6816 16.61C80.9336 16.814 81.2996 16.916 81.7796 16.916ZM90.38 18.5L87.536 9.572H89.948L92.018 16.844H92.342L94.412 9.572H96.824L93.98 18.5H90.38ZM102.174 18.752C101.286 18.752 100.5 18.566 99.8157 18.194C99.1437 17.81 98.6157 17.276 98.2317 16.592C97.8597 15.896 97.6737 15.08 97.6737 14.144V13.928C97.6737 12.992 97.8597 12.182 98.2317 11.498C98.6037 10.802 99.1257 10.268 99.7977 9.896C100.47 9.512 101.25 9.32 102.138 9.32C103.014 9.32 103.776 9.518 104.424 9.914C105.072 10.298 105.576 10.838 105.936 11.534C106.296 12.218 106.476 13.016 106.476 13.928V14.702H99.9777C100.002 15.314 100.23 15.812 100.662 16.196C101.094 16.58 101.622 16.772 102.246 16.772C102.882 16.772 103.35 16.634 103.65 16.358C103.95 16.082 104.178 15.776 104.334 15.44L106.188 16.412C106.02 16.724 105.774 17.066 105.45 17.438C105.138 17.798 104.718 18.11 104.19 18.374C103.662 18.626 102.99 18.752 102.174 18.752ZM99.9957 13.01H104.172C104.124 12.494 103.914 12.08 103.542 11.768C103.182 11.456 102.708 11.3 102.12 11.3C101.508 11.3 101.022 11.456 100.662 11.768C100.302 12.08 100.08 12.494 99.9957 13.01ZM108.494 18.5V9.572H110.726V10.742H111.05C111.194 10.43 111.464 10.136 111.86 9.86C112.256 9.572 112.856 9.428 113.66 9.428C114.356 9.428 114.962 9.59 115.478 9.914C116.006 10.226 116.414 10.664 116.702 11.228C116.99 11.78 117.134 12.428 117.134 13.172V18.5H114.866V13.352C114.866 12.68 114.698 12.176 114.362 11.84C114.038 11.504 113.57 11.336 112.958 11.336C112.262 11.336 111.722 11.57 111.338 12.038C110.954 12.494 110.762 13.136 110.762 13.964V18.5H108.494Z" fill="#121714"/>
<defs>
<clipPath id="clip0_1_96">
<rect width="16" height="16" fill="white" transform="translate(0 4)"/>
</clipPath>
</defs>
</svg>
